<svg width="27" height="24" viewBox="0 0 27 24" fill="none" xmlns="http://www.w3.org/2000/svg">
<path d="M12.4582 2.633C12.8182 1.789 14.1806 1.789 14.5417 2.633L16.8704 8.367C17.0336 8.747 17.4487 9 17.9122 9H23.6351C24.6926 9 25.1538 10.17 24.3224 10.743L20.2499 14C20.0675 14.1247 19.9342 14.2975 19.8691 14.4937C19.804 14.6898 19.8105 14.8993 19.8877 15.092L21.3749 20.695C21.7372 21.595 20.5649 22.368 19.6784 21.814L14.1468 18.694C13.9574 18.5757 13.7315 18.5122 13.4999 18.5122C13.2684 18.5122 13.0425 18.5757 12.8531 18.694L7.32143 21.814C6.43606 22.368 5.26268 21.594 5.62493 20.695L7.11218 15.092C7.18933 14.8993 7.19584 14.6898 7.13076 14.4937C7.06568 14.2975 6.93236 14.1247 6.74993 14L2.67743 10.743C1.84493 10.17 2.30843 9 3.36368 9H9.08656C9.31189 9.00067 9.53213 8.9405 9.71815 8.82747C9.90417 8.71444 10.0472 8.55387 10.1283 8.367L12.4571 2.633H12.4582Z" stroke="#F6A300" stroke-width="2" stroke-linecap="round" stroke-linejoin="round"/>
</svg>
