<svg width="27" height="24" viewBox="0 0 27 24" fill="none" xmlns="http://www.w3.org/2000/svg">
<path d="M18.5626 18.7979C18.5626 21.2399 17.2801 22.9969 15.1798 22.9969C14.0255 22.9969 13.6295 22.3949 13.2155 20.9969C13.1311 20.7079 13.0895 20.5669 13.0456 20.4289C12.932 20.0699 12.734 19.4589 12.4528 18.5979C12.4451 18.575 12.4337 18.5531 12.419 18.5329L9.19589 14.0469C8.43277 12.9862 7.30701 12.1709 5.98402 11.7209L5.4519 11.5399C4.77245 11.3086 4.20646 10.8718 3.85339 10.3063C3.50033 9.74085 3.38278 9.08284 3.5214 8.44794L3.9759 6.36194C4.1089 5.75216 4.4357 5.18903 4.9176 4.73923C5.39951 4.28942 6.01632 3.97179 6.69502 3.82394L15.2765 1.95394C16.6446 1.65602 18.0897 1.85028 19.2975 2.49448C20.5053 3.13868 21.3781 4.18072 21.7261 5.39395L23.318 10.9439C23.4555 11.4238 23.4678 11.9252 23.354 12.4099C23.2402 12.8946 23.0033 13.3497 22.6614 13.7406C22.3196 14.1316 21.8817 14.4479 21.3814 14.6654C20.881 14.883 20.3313 14.996 19.7743 14.9959L17.7245 14.9959C18.2825 16.6289 18.5638 17.8889 18.5638 18.7979L18.5626 18.7979ZM5.17515 8.73294C5.11198 9.02162 5.16534 9.32084 5.32583 9.578C5.48633 9.83516 5.74368 10.0338 6.05265 10.1389L6.5859 10.3189C8.24599 10.884 9.65842 11.9075 10.6156 13.2389L13.841 17.7249C13.9423 17.8659 14.0199 18.0189 14.0716 18.1799C14.3551 19.0449 14.5531 19.6589 14.6679 20.0229C14.7174 20.1759 14.7635 20.3309 14.8468 20.6149C15.0605 21.3369 15.1651 21.4969 15.1786 21.4969C16.1551 21.4969 16.874 20.5129 16.874 18.7969C16.874 17.9129 16.5073 16.4619 15.767 14.4829C15.7248 14.3703 15.7133 14.2503 15.7334 14.1328C15.7536 14.0154 15.8048 13.9039 15.8829 13.8076C15.961 13.7112 16.0638 13.6327 16.1827 13.5785C16.3016 13.5243 16.4333 13.496 16.5669 13.4959L19.7731 13.4959C20.073 13.4958 20.3689 13.4348 20.6382 13.3175C20.9075 13.2003 21.1432 13.03 21.3272 12.8195C21.5112 12.6091 21.6388 12.364 21.7001 12.1031C21.7614 11.8422 21.755 11.5723 21.6811 11.3139L20.0893 5.76395C19.851 4.93388 19.2537 4.221 18.4272 3.78036C17.6007 3.33972 16.6119 3.20695 15.6759 3.41094L7.0944 5.28095C6.72913 5.36059 6.39717 5.53156 6.13779 5.77364C5.87841 6.01572 5.70247 6.31877 5.63077 6.64694L5.17515 8.73294Z" fill="#D71D1D"/>
</svg>
